# xmcd
#
# Track frame offsets:
#  150
#  21300
#  37679
#  50589
#  63573
#  79747
#  93168
#  104638
#  119993
#  131581
#  148787
#  166954
#
# Disc length: 2406 seconds
#
# Revision: 0
# Processed by: cddbd v1.5.1PL2 Copyright (c) Steve Scherf et al.
# Submitted via: Collectorz.com_Music_Collector 6.10
#
DISCID=aa09640c
DTITLE=The Hellboppers - Hellectricity
DYEAR=2006
DGENRE=Blues
TTITLE0=Midnight Train
TTITLE1=Can't Be Satisfied
TTITLE2=Right Hand Man
TTITLE3=Ellen B
TTITLE4=Another Man
TTITLE5=Runnin' Shoes
TTITLE6=Violent Love
TTITLE7=Walkin' Blues
TTITLE8=Hey Hey
TTITLE9=You Don't Love Me
TTITLE10=Mobile Phone
TTITLE11=Nobody Knows You
EXTD=
EXTT0=
EXTT1=
EXTT2=
EXTT3=
EXTT4=
EXTT5=
EXTT6=
EXTT7=
EXTT8=
EXTT9=
EXTT10=
EXTT11=
PLAYORDER=
